<svg xmlns="http://www.w3.org/2000/svg" version="1.1" xmlns:xlink="http://www.w3.org/1999/xlink" xmlns:svgjs="http://svgjs.dev/svgjs" width="1920" height="1080" preserveAspectRatio="none" viewBox="0 0 1920 1080"><g mask="url(&quot;#SvgjsMask1126&quot;)" fill="none"><rect width="1920" height="1080" x="0" y="0" fill="url(&quot;#SvgjsLinearGradient1127&quot;)"></rect><path d="M182.54 0C182.54 82.24 50.21 259.2 0 259.2C-41.06 259.2 -53.55 76.05 0 0C37.72 -53.55 182.54 -47.36 182.54 0" stroke="rgba(51, 121, 194, 0.58)" stroke-width="2"></path><path d="M464.4 270C484.7 191.91 511.49 200.61 540 124.62C562.14 65.61 519.47 21.34 565.71 0C654.47 -40.97 687.86 0 810 0C907.4 0 920.26 -27.76 1004.81 0C1055.26 16.57 1044.38 88.66 1080 88.66C1113.24 88.66 1096.17 15.22 1142.53 0C1231.17 -29.11 1246.26 0 1350 0C1485 0 1485 0 1620 0C1755 0 1755 0 1890 0C2025 0 2092.5 -67.5 2160 0C2227.5 67.5 2160 135 2160 270C2160 405 2160 405 2160 540C2160 639.39 2192.71 657.01 2160 738.79C2138.71 792.01 2052 758.72 2052 810C2052 914.33 2111.53 928.81 2160 1050C2165.53 1063.81 2173.5 1078.5 2160 1080C2038.5 1093.5 2025 1080 1890 1080C1822.5 1080 1792.04 1123.22 1755 1080C1676.33 988.22 1716.05 938.49 1658.57 810C1648.55 787.61 1637.06 778.24 1620 778.24C1606.83 778.24 1601.22 791.23 1598.11 810C1576.22 942.11 1638.52 1005.43 1570 1080C1514.47 1140.43 1460 1080 1350 1080C1215 1080 1215 1080 1080 1080C1068.75 1080 1067.61 1084.73 1057.5 1080C932.61 1021.54 924.95 1029.65 810 953.62C720.85 894.65 649.29 881.39 649.29 810C649.29 739.27 720.06 672.51 810 669.38C935.42 665.01 994.32 829.53 1080 795C1154.82 764.84 1131 662.25 1131 540C1131 497.74 1119.58 481.28 1080 465.97C959.08 419.18 934.36 394.77 810 415.8C715.44 431.79 718.78 470.15 642.16 540C583.78 593.22 580.53 594.61 540 661.94C499.26 729.61 490 732.26 479.61 810C462.07 941.29 542.59 1004.71 484.14 1080C437.79 1139.71 377.07 1080 270 1080C135 1080 67.5 1147.5 0 1080C-67.5 1012.5 0 945 0 810C0 675 0 675 0 540C0 414.31 -35.02 288.62 0 288.62C40.92 288.62 59.98 430.32 151.88 540C194.98 591.45 208.67 610.88 270 610.88C348.73 610.88 393.7 607.16 432 540C490.9 436.72 430.7 399.6 464.4 270" stroke="rgba(51, 121, 194, 0.58)" stroke-width="2"></path><path d="M1890 241.58C1846.49 241.58 1800 239.95 1800 270C1800 321.66 1852.86 405 1890 405C1922.97 405 1940.23 328.34 1940.23 270C1940.23 246.63 1916.61 241.58 1890 241.58" stroke="rgba(51, 121, 194, 0.58)" stroke-width="2"></path><path d="M87.46 0C87.46 39.41 24.06 124.2 0 124.2C-19.67 124.2 -25.66 36.44 0 0C18.07 -25.66 87.46 -22.69 87.46 0" stroke="rgba(51, 121, 194, 0.58)" stroke-width="2"></path><path d="M783 270C720.65 142.33 663.68 91.82 672.86 0C677.18 -43.18 741.43 0 810 0C864.68 0 878.09 -28.95 919.37 0C1013.09 65.75 1003.91 189.4 1080 189.4C1151.01 189.4 1128.6 59.61 1213.58 0C1263.6 -35.09 1281.79 0 1350 0C1485 0 1485 0 1620 0C1755 0 1755 0 1890 0C1979.31 0 2068.62 -32.98 2068.62 0C2068.62 43.4 1993.2 130.58 1890 152.76C1768.89 178.79 1732.67 63.81 1620 96.43C1530.17 122.43 1485 195.3 1485 270C1485 323.98 1563.56 299.55 1620 353.79C1704.04 434.55 1765.95 457.12 1765.95 540C1765.95 603.16 1681.52 581.76 1620 645.88C1551.99 716.76 1535.16 717.96 1506.89 810C1468.49 935.02 1538.8 990.29 1486.67 1080C1460.36 1125.29 1418.34 1080 1350 1080C1263.51 1080 1210.86 1132.71 1177.03 1080C1124.22 997.71 1169.5 944.61 1176.72 810C1183.98 674.61 1232.6 664.57 1206 540C1184.24 438.12 1167.48 414.36 1080 357.1C969.48 284.76 944.55 320.26 810 280.8C796.05 276.71 789.22 282.73 783 270" stroke="rgba(51, 121, 194, 0.58)" stroke-width="2"></path><path d="M2097.21 270C2122.19 223.94 2142.58 185.63 2160 185.63C2173.97 185.63 2160 227.81 2160 270C2160 405 2160 405 2160 540C2160 602.31 2193.86 664.62 2160 664.62C2097.76 664.62 1981.41 625.52 1967.8 540C1950.01 428.21 2026.09 401.13 2097.21 270" stroke="rgba(51, 121, 194, 0.58)" stroke-width="2"></path><path d="M0 521.38C3.03 521.38 2.17 534.15 11.25 540C137.17 621.09 147.74 608.27 270 695.25C337.51 743.27 390.79 741.36 390.79 810C390.79 926.24 349.64 962.99 270 1065C244.25 1097.99 225.41 1077.48 180 1080C90.41 1084.98 36 1134 0 1080C-54 999 0 945 0 810C0 675 0 675 0 540C0 530.69 -2.59 521.38 0 521.38" stroke="rgba(51, 121, 194, 0.58)" stroke-width="2"></path><path d="M1819.29 810C1819.29 754.76 1858.67 703.93 1890 703.93C1918.77 703.93 1939.5 755.73 1939.5 810C1939.5 879.48 1919.24 951.43 1890 951.43C1859.14 951.43 1819.29 878.51 1819.29 810" stroke="rgba(51, 121, 194, 0.58)" stroke-width="2"></path><path d="M810 63C796.29 63 780 22.03 780 0C780 -9.47 795 0 810 0C821.96 0 833.92 -8.25 833.92 0C833.92 23.25 823.25 63 810 63" stroke="rgba(51, 121, 194, 0.58)" stroke-width="2"></path><path d="M1350 159.23C1303.36 159.23 1284.63 57.7 1284.63 0C1284.63 -21.91 1317.32 0 1350 0C1422.21 0 1494.42 -31.99 1494.42 0C1494.42 47.62 1408.25 159.23 1350 159.23" stroke="rgba(51, 121, 194, 0.58)" stroke-width="2"></path><path d="M1890 63.95C1829.97 63.95 1762.11 16.88 1762.11 0C1762.11 -15.1 1826.05 0 1890 0C1927.39 0 1964.77 -13.81 1964.77 0C1964.77 18.17 1931.3 63.95 1890 63.95" stroke="rgba(51, 121, 194, 0.58)" stroke-width="2"></path><path d="M1281 540C1295.19 456.03 1293.5 380.77 1350 380.77C1438.89 380.77 1556.46 439.82 1571.79 540C1589.3 654.44 1460.8 665.35 1415.68 810C1376.57 935.35 1430.76 967.25 1403.33 1080C1397.92 1102.25 1376.66 1080 1350 1080C1316.25 1080 1289.75 1107 1282.5 1080C1253.48 972 1277.84 945.01 1277.46 810C1277.09 675.01 1258.92 670.65 1281 540" stroke="rgba(51, 121, 194, 0.58)" stroke-width="2"></path><path d="M2082.2 540C2082.2 478.18 2139.3 396.56 2160 396.56C2178.2 396.56 2160 468.28 2160 540C2160 565.22 2173.71 590.44 2160 590.44C2134.81 590.44 2082.2 575.12 2082.2 540" stroke="rgba(51, 121, 194, 0.58)" stroke-width="2"></path><path d="M0 699.23C96.9 688.33 139.45 731.74 270 779.63C290.43 787.13 301.97 791.83 301.97 810C301.97 840.77 302.3 865.01 270 877.5C151.31 923.39 94.71 950.44 0 926.76C-40.29 916.69 0 868.38 0 810C0 754.62 -38.1 703.52 0 699.23" stroke="rgba(51, 121, 194, 0.58)" stroke-width="2"></path></g><defs><mask id="SvgjsMask1126"><rect width="1920" height="1080" fill="#ffffff"></rect></mask><linearGradient x1="0%" y1="50%" x2="100%" y2="50%" gradientUnits="userSpaceOnUse" id="SvgjsLinearGradient1127"><stop stop-color="#0e2a47" offset="0"></stop><stop stop-color="rgba(210, 0, 225, 1)" offset="0.78"></stop></linearGradient></defs></svg>